<svg width="40" height="28" viewBox="0 0 40 28" fill="none" xmlns="http://www.w3.org/2000/svg">
    <path d="M34.998 2.5C34.998 1.11719 36.1152 0 37.498 0C38.8809 0 39.998 1.11719 39.998 2.5V10C39.998 14.1406 36.6387 17.5 32.498 17.5L8.53711 17.5L14.2715 23.2344C15.248 24.2109 15.248 25.7969 14.2715 26.7734C13.2949 27.75 11.709 27.75 10.7324 26.7734L0.732422 16.7734C-0.244141 15.7969 -0.244141 14.2109 0.732422 13.2344L10.7324 3.23438C11.709 2.25781 13.2949 2.25781 14.2715 3.23438C15.248 4.21094 15.248 5.79688 14.2715 6.77344L8.53711 12.5L32.498 12.5C33.8809 12.5 34.998 11.3828 34.998 10V2.5Z" fill="white"/>
</svg>
