<svg width="9" height="44" viewBox="0 0 9 44" fill="none" xmlns="http://www.w3.org/2000/svg">
<path d="M7.46214 3.65407C7.46214 1.95215 6.08714 0.577148 4.38522 0.577148C2.68329 0.577148 1.30829 1.95215 1.30829 3.65407V28.2695C1.30829 29.9714 2.68329 31.3464 4.38522 31.3464C6.08714 31.3464 7.46214 29.9714 7.46214 28.2695V3.65407ZM4.38522 43.6541C5.40528 43.6541 6.38356 43.2489 7.10486 42.5276C7.82615 41.8063 8.23137 40.828 8.23137 39.8079C8.23137 38.7879 7.82615 37.8096 7.10486 37.0883C6.38356 36.367 5.40528 35.9618 4.38522 35.9618C3.36515 35.9618 2.38687 36.367 1.66557 37.0883C0.944281 37.8096 0.539063 38.7879 0.539062 39.8079C0.539063 40.828 0.944281 41.8063 1.66557 42.5276C2.38687 43.2489 3.36515 43.6541 4.38522 43.6541Z" fill="white"/>
</svg>
