<svg width="35" height="33" viewBox="0 0 35 33" fill="none" xmlns="http://www.w3.org/2000/svg">
<path d="M10.95 0.124902C11.8584 0.302637 12.4489 1.16738 12.2672 2.05605L12.1868 2.4457C12.0016 3.3583 11.6592 4.22646 11.1806 5.01601H16.2118C17.1377 5.01601 17.8889 5.75088 17.8889 6.65664C17.8889 7.28896 17.522 7.83926 16.984 8.11269C17.3648 8.41348 17.6094 8.8749 17.6094 9.39101C17.6094 10.1908 17.0224 10.8573 16.2502 11.0009C16.404 11.2504 16.4913 11.5409 16.4913 11.852C16.4913 12.58 16.0057 13.1986 15.3348 13.4105C15.3593 13.5233 15.3733 13.643 15.3733 13.766C15.3733 14.6718 14.6221 15.4066 13.6962 15.4066H10.2896C9.62576 15.4066 8.97938 15.2152 8.42734 14.8563L7.08218 13.9779C6.14931 13.3695 5.59028 12.3441 5.59028 11.247V9.93789V8.29726V7.44619C5.59028 6.44814 6.05497 5.5082 6.84809 4.88271L7.10664 4.68105C8.03253 3.95644 8.66493 2.93789 8.89553 1.80312L8.97589 1.41348C9.15757 0.524804 10.0415 -0.0528321 10.95 0.124902ZM1.11806 5.56289H3.35417C3.97259 5.56289 4.47222 6.05166 4.47222 6.65664V14.3129C4.47222 14.9179 3.97259 15.4066 3.35417 15.4066H1.11806C0.499631 15.4066 0 14.9179 0 14.3129V6.65664C0 6.05166 0.499631 5.56289 1.11806 5.56289Z" fill="white"/>
<path d="M26.4436 2.80469L8.55469 30.196" stroke="white" stroke-width="2"/>
<path d="M28.0613 32.8755C28.9697 32.6978 29.5602 31.833 29.3785 30.9443L29.2981 30.5547C29.113 29.6421 28.7706 28.7739 28.2919 27.9844H33.3231C34.249 27.9844 35.0002 27.2495 35.0002 26.3437C35.0002 25.7114 34.6334 25.1611 34.0953 24.8877C34.4761 24.5869 34.7207 24.1255 34.7207 23.6094C34.7207 22.8096 34.1337 22.1431 33.3616 21.9995C33.5153 21.75 33.6026 21.4595 33.6026 21.1484C33.6026 20.4204 33.117 19.8018 32.4462 19.5898C32.4706 19.4771 32.4846 19.3574 32.4846 19.2344C32.4846 18.3286 31.7334 17.5938 30.8075 17.5938H27.4009C26.7371 17.5938 26.0907 17.7852 25.5387 18.144L24.1935 19.0225C23.2606 19.6309 22.7016 20.6562 22.7016 21.7534V23.0625V24.7031V25.5542C22.7016 26.5522 23.1663 27.4922 23.9594 28.1177L24.218 28.3193C25.1439 29.0439 25.7763 30.0625 26.0069 31.1973L26.0872 31.5869C26.2689 32.4756 27.1529 33.0532 28.0613 32.8755ZM18.2294 29.625H20.4655C21.0839 29.625 21.5836 29.1362 21.5836 28.5312V20.875C21.5836 20.27 21.0839 19.7812 20.4655 19.7812H18.2294C17.611 19.7812 17.1113 20.27 17.1113 20.875V28.5312C17.1113 29.1362 17.611 29.625 18.2294 29.625Z" fill="white"/>
</svg>
