<svg width="20" height="20" viewBox="0 0 41 36" fill="none" xmlns="http://www.w3.org/2000/svg">
    <g clip-path="url(#clip0_500_476)">
        <path d="M22.7473 1.62732C22.3792 0.86343 21.6015 0.377319 20.7473 0.377319C19.8931 0.377319 19.1223 0.86343 18.7473 1.62732L14.282 10.8148L4.3098 12.287C3.47647 12.412 2.78202 12.9954 2.52508 13.794C2.26813 14.5926 2.47647 15.4745 3.07369 16.0648L10.3098 23.2245L8.60147 33.3426C8.46258 34.1759 8.8098 35.0232 9.4973 35.5162C10.1848 36.0093 11.0945 36.0718 11.8445 35.6759L20.7542 30.919L29.664 35.6759C30.414 36.0718 31.3237 36.0162 32.0112 35.5162C32.6987 35.0162 33.0459 34.1759 32.907 33.3426L31.1917 23.2245L38.4279 16.0648C39.0251 15.4745 39.2404 14.5926 38.9765 13.794C38.7126 12.9954 38.0251 12.412 37.1917 12.287L27.2126 10.8148L22.7473 1.62732Z" fill="#FFCC00"/>
    </g>
    <defs>
        <clipPath id="clip0_500_476">
            <rect width="40" height="35.5556" fill="white" transform="translate(0.740479 0.377319)"/>
        </clipPath>
    </defs>
</svg>
