<svg width="17" height="30" viewBox="0 0 17 30" fill="none" xmlns="http://www.w3.org/2000/svg">
    <path d="M15.7077 25.827C16.06 26.1792 16.2579 26.657 16.2579 27.1551C16.2579 27.6533 16.06 28.131 15.7077 28.4832C15.3555 28.8355 14.8777 29.0334 14.3796 29.0334C13.8815 29.0334 13.4037 28.8355 13.0515 28.4832L0.551478 15.9832C0.376678 15.809 0.237984 15.6021 0.143349 15.3741C0.0487141 15.1462 0 14.9019 0 14.6551C0 14.4083 0.0487141 14.164 0.143349 13.9361C0.237984 13.7082 0.376678 13.5012 0.551478 13.327L13.0515 0.826982C13.4037 0.474742 13.8815 0.276855 14.3796 0.276855C14.8777 0.276855 15.3555 0.474742 15.7077 0.826983C16.06 1.17922 16.2579 1.65696 16.2579 2.15511C16.2579 2.65325 16.06 3.13099 15.7077 3.48323L4.53742 14.6535L15.7077 25.827Z" fill="white"/>
</svg>
