<svg width="31" height="27" viewBox="0 0 31 27" fill="none" xmlns="http://www.w3.org/2000/svg">
<path d="M5.76923 3.88424C5.76923 1.76285 7.49399 0.0380859 9.61539 0.0380859H26.9231C29.0445 0.0380859 30.7692 1.76285 30.7692 3.88424V23.115C30.7692 25.2364 29.0445 26.9612 26.9231 26.9612H4.80769C2.15144 26.9612 0 24.8097 0 22.1535V5.80732C0 4.74361 0.859375 3.88424 1.92308 3.88424C2.98678 3.88424 3.84615 4.74361 3.84615 5.80732V22.1535C3.84615 22.6823 4.27885 23.115 4.80769 23.115C5.33654 23.115 5.76923 22.6823 5.76923 22.1535V3.88424ZM9.61539 5.32655V10.1342C9.61539 10.9335 10.2584 11.5765 11.0577 11.5765H17.7885C18.5877 11.5765 19.2308 10.9335 19.2308 10.1342V5.32655C19.2308 4.52727 18.5877 3.88424 17.7885 3.88424H11.0577C10.2584 3.88424 9.61539 4.52727 9.61539 5.32655ZM22.1154 4.84578C22.1154 5.37462 22.5481 5.80732 23.0769 5.80732H25.9615C26.4904 5.80732 26.9231 5.37462 26.9231 4.84578C26.9231 4.31693 26.4904 3.88424 25.9615 3.88424H23.0769C22.5481 3.88424 22.1154 4.31693 22.1154 4.84578ZM22.1154 10.615C22.1154 11.1439 22.5481 11.5765 23.0769 11.5765H25.9615C26.4904 11.5765 26.9231 11.1439 26.9231 10.615C26.9231 10.0862 26.4904 9.65347 25.9615 9.65347H23.0769C22.5481 9.65347 22.1154 10.0862 22.1154 10.615ZM9.61539 16.3842C9.61539 16.9131 10.0481 17.3458 10.5769 17.3458H25.9615C26.4904 17.3458 26.9231 16.9131 26.9231 16.3842C26.9231 15.8554 26.4904 15.4227 25.9615 15.4227H10.5769C10.0481 15.4227 9.61539 15.8554 9.61539 16.3842ZM9.61539 22.1535C9.61539 22.6823 10.0481 23.115 10.5769 23.115H25.9615C26.4904 23.115 26.9231 22.6823 26.9231 22.1535C26.9231 21.6246 26.4904 21.1919 25.9615 21.1919H10.5769C10.0481 21.1919 9.61539 21.6246 9.61539 22.1535Z" fill="white"/>
</svg>
