<svg width="20" height="20" viewBox="0 0 20 20" fill="none" xmlns="http://www.w3.org/2000/svg">
    <path d="M16.027 9.02637L16.4684 8.58496L15.1442 7.26074L12.7184 4.83496L11.3942 3.51074L10.9528 3.95215L10.07 4.83496L2.28872 12.6162C1.88247 13.0225 1.58559 13.5264 1.42153 14.0771L0.0387177 18.7803C-0.0589386 19.1084 0.0309051 19.4639 0.276999 19.7061C0.523093 19.9482 0.874655 20.0381 1.20278 19.9443L5.902 18.5615C6.45278 18.3975 6.95669 18.1006 7.36294 17.6943L15.1442 9.91309L16.027 9.02637ZM6.24966 15.6045L5.89419 16.4912C5.73794 16.6123 5.56216 16.7021 5.37466 16.7607L2.31997 17.6592L3.21841 14.6084C3.27309 14.417 3.36684 14.2412 3.48794 14.0889L4.37466 13.7334V14.9834C4.37466 15.3271 4.65591 15.6084 4.99966 15.6084H6.24966V15.6045ZM14.1676 0.733398L13.6051 1.2998L12.7223 2.18262L12.277 2.62402L13.6012 3.94824L16.027 6.37402L17.3512 7.69824L17.7926 7.25684L18.6754 6.37402L19.2418 5.80762C20.2184 4.83106 20.2184 3.24902 19.2418 2.27246L17.7067 0.733398C16.7301 -0.243164 15.1481 -0.243164 14.1715 0.733398H14.1676ZM12.3161 7.2959L6.69106 12.9209C6.44887 13.1631 6.05044 13.1631 5.80825 12.9209C5.56606 12.6787 5.56606 12.2803 5.80825 12.0381L11.4333 6.41309C11.6754 6.1709 12.0739 6.1709 12.3161 6.41309C12.5582 6.65527 12.5582 7.05371 12.3161 7.2959Z" fill="white"/>
</svg>
