<svg width="40" height="46" viewBox="0 0 40 46" fill="none" xmlns="http://www.w3.org/2000/svg">
    <path d="M20 23.0788C23.031 23.0788 25.9379 21.8747 28.0812 19.7315C30.2245 17.5882 31.4286 14.6813 31.4286 11.6503C31.4286 8.61921 30.2245 5.7123 28.0812 3.56903C25.9379 1.42576 23.031 0.22168 20 0.22168C16.969 0.22168 14.0621 1.42576 11.9188 3.56903C9.77551 5.7123 8.57143 8.61921 8.57143 11.6503C8.57143 14.6813 9.77551 17.5882 11.9188 19.7315C14.0621 21.8747 16.969 23.0788 20 23.0788ZM15.9196 27.3645C7.125 27.3645 0 34.4895 0 43.2842C0 44.7485 1.1875 45.936 2.65179 45.936H37.3482C38.8125 45.936 40 44.7485 40 43.2842C40 34.4895 32.875 27.3645 24.0804 27.3645H15.9196Z" fill="white"/>
</svg>
